<?xml version="1.0" encoding="utf-8"?>
<!-- Generator: Adobe Illustrator 16.0.0, SVG Export Plug-In . SVG Version: 6.00 Build 0)  -->
<!DOCTYPE svg PUBLIC "-//W3C//DTD SVG 1.1//EN" "http://www.w3.org/Graphics/SVG/1.1/DTD/svg11.dtd">
<svg version="1.1" id="Layer_4" xmlns="http://www.w3.org/2000/svg" xmlns:xlink="http://www.w3.org/1999/xlink" x="0px" y="0px"
	 width="260px" height="260px" viewBox="0 0 260 260" style="enable-background:new 0 0 260 260;" xml:space="preserve">
<g>
	<path style="fill:#B7BDC1;" d="M156.701,168.511c-21.206,14.675-50.397,9.38-65.072-11.823
		c-14.676-21.206-9.359-50.399,11.825-65.074c9.782-6.766,21.225-9.277,32.2-7.958l26.089-18.068
		c-22.608-11.062-50.431-9.938-72.561,5.388c-32.581,22.572-40.743,67.401-18.171,99.982c22.551,32.582,67.379,40.723,99.96,18.171
		c22.473-15.544,33.336-41.666,30.517-67.098l-25.718,17.799C173.37,151.058,166.899,161.475,156.701,168.511z"/>
	<path style="fill:#33ABD3;" d="M130.096,33.056c-1.056,0-2.086,0.015-3.136,0.042c-0.342,0.01-0.682,0.026-1.024,0.038
		c-0.705,0.044-1.389,0.069-2.07,0.105c-0.416,0.042-0.829,0.069-1.222,0.095c-0.627,0.059-1.254,0.1-1.857,0.167
		c-0.432,0.033-0.861,0.072-1.291,0.13c-0.583,0.055-1.188,0.129-1.769,0.21c-0.436,0.046-0.871,0.114-1.305,0.165
		c-0.573,0.087-1.167,0.179-1.738,0.274c-0.434,0.057-0.868,0.135-1.3,0.216c-0.569,0.102-1.135,0.21-1.723,0.32
		c-0.406,0.066-0.835,0.153-1.262,0.245c-0.595,0.119-1.167,0.245-1.738,0.372c-0.412,0.096-0.824,0.188-1.212,0.286
		c-0.628,0.142-1.252,0.314-1.855,0.466c-0.348,0.096-0.72,0.186-1.067,0.285c-0.894,0.241-1.783,0.492-2.667,0.773
		c-0.283,0.088-0.541,0.181-0.822,0.25c-0.712,0.227-1.445,0.456-2.171,0.716c-0.381,0.129-0.779,0.267-1.157,0.421
		c-0.543,0.177-1.086,0.374-1.625,0.578c-0.426,0.15-0.849,0.327-1.273,0.482c-0.485,0.2-0.992,0.398-1.473,0.604
		c-0.435,0.166-0.868,0.357-1.3,0.548c-0.465,0.205-0.951,0.412-1.413,0.603c-0.438,0.201-0.874,0.403-1.309,0.609
		c-0.451,0.213-0.9,0.429-1.349,0.647c-0.436,0.212-0.872,0.426-1.305,0.644c-0.441,0.222-0.88,0.448-1.319,0.676
		c-0.433,0.225-0.866,0.448-1.296,0.679c-0.432,0.23-0.859,0.466-1.288,0.722c-0.43,0.236-0.86,0.47-1.286,0.712
		c-0.401,0.259-0.818,0.505-1.237,0.749c-0.426,0.248-0.854,0.513-1.275,0.767c-0.391,0.246-0.797,0.521-1.204,0.771
		c-0.809,0.53-1.609,1.07-2.425,1.62c-0.357,0.245-0.718,0.507-1.094,0.755c-0.432,0.31-0.858,0.627-1.267,0.921
		c-0.371,0.273-0.723,0.523-1.07,0.801c-0.426,0.3-0.847,0.626-1.268,0.953c-0.343,0.28-0.686,0.539-1.024,0.823
		c-0.419,0.331-0.834,0.667-1.228,1.004c-0.354,0.288-0.688,0.554-1.018,0.845c-0.392,0.342-0.802,0.688-1.209,1.036
		c-0.325,0.292-0.648,0.588-0.97,0.864c-0.385,0.354-0.791,0.729-1.17,1.087c-0.314,0.298-0.625,0.578-0.937,0.878
		c-0.379,0.388-0.78,0.754-1.175,1.128c-0.281,0.297-0.578,0.6-0.875,0.903c-0.376,0.381-0.774,0.781-1.145,1.168
		c-0.28,0.291-0.534,0.587-0.789,0.86c-0.403,0.426-0.807,0.85-1.183,1.283c-0.057,0.041-0.092,0.104-0.128,0.146
		c-0.959,1.072-1.895,2.164-2.793,3.27c-0.234,0.297-0.471,0.57-0.701,0.869c-0.339,0.431-0.67,0.867-1.025,1.302
		c-0.187,0.257-0.396,0.534-0.601,0.793L67.2,79.95l7.568,4.299c1.218-1.486,2.494-2.918,3.823-4.299
		c13.057-13.425,31.312-21.81,51.505-21.81c20.194,0,38.427,8.385,51.504,21.81h31.507
		C196.097,51.874,165.249,33.056,130.096,33.056z"/>
	<path style="fill:#33ABD3;" d="M190.858,178.945l-0.558-0.353l-4.933-2.736c-0.757,0.928-1.569,1.844-2.405,2.736
		c-13.139,14.273-31.971,23.246-52.867,23.246s-39.728-8.973-52.888-23.246c-11.763-12.779-18.972-29.849-18.972-48.591
		c0-8.217,1.407-16.107,3.955-23.482L40.072,94.088l-0.014-0.029c-4.46,11.125-6.928,23.252-6.928,35.942
		c0,17.706,4.797,34.308,13.117,48.591c0.408,0.684,0.829,1.358,1.25,2.074c0.139,0.236,0.275,0.474,0.437,0.706
		c0.393,0.65,0.816,1.294,1.24,1.936c0.144,0.227,0.304,0.457,0.449,0.683c0.432,0.646,0.877,1.28,1.321,1.874
		c0.166,0.218,0.306,0.438,0.453,0.654c0.47,0.633,0.929,1.257,1.39,1.882c0.173,0.212,0.319,0.431,0.472,0.643
		c0.485,0.62,0.96,1.188,1.456,1.799c0.156,0.211,0.331,0.423,0.488,0.632c0.501,0.607,0.991,1.163,1.502,1.761
		c0.162,0.205,0.34,0.415,0.524,0.618c0.493,0.551,1.017,1.134,1.542,1.718c0.169,0.201,0.354,0.405,0.544,0.566
		c0.508,0.58,1.047,1.106,1.586,1.677c0.193,0.197,0.383,0.397,0.557,0.593c0.542,0.522,1.094,1.077,1.646,1.592
		c0.2,0.192,0.396,0.39,0.597,0.58c0.551,0.507,1.112,1,1.672,1.535c0.21,0.151,0.416,0.348,0.626,0.539
		c0.561,0.487,1.133,1.008,1.724,1.484c0.217,0.19,0.409,0.382,0.627,0.528c0.592,0.512,1.171,0.974,1.752,1.434
		c0.246,0.185,0.468,0.334,0.694,0.521c0.574,0.448,1.158,0.885,1.762,1.323c0.239,0.188,0.474,0.382,0.737,0.568
		c0.582,0.431,1.173,0.85,1.783,1.269c0.247,0.143,0.492,0.332,0.761,0.515c0.588,0.411,1.204,0.813,1.799,1.17
		c0.279,0.183,0.535,0.369,0.816,0.551c0.592,0.39,1.214,0.729,1.814,1.112c0.289,0.18,0.576,0.36,0.846,0.495
		c0.623,0.378,1.232,0.74,1.86,1.064c0.296,0.173,0.569,0.351,0.866,0.478c0.62,0.354,1.226,0.652,1.852,0.997
		c0.314,0.171,0.625,0.306,0.92,0.478c0.622,0.291,1.25,0.613,1.858,0.895c0.325,0.167,0.646,0.338,0.972,0.462
		c0.626,0.314,1.259,0.578,1.869,0.842c0.336,0.161,0.689,0.328,1.027,0.444c0.6,0.253,1.229,0.493,1.856,0.776
		c0.352,0.117,0.701,0.281,1.056,0.435c0.623,0.234,1.254,0.458,1.861,0.683c0.384,0.107,0.742,0.265,1.128,0.41
		c0.604,0.217,1.236,0.379,1.867,0.586c0.373,0.144,0.764,0.291,1.138,0.392c0.631,0.198,1.267,0.385,1.88,0.573
		c0.401,0.093,0.799,0.234,1.18,0.321c0.643,0.185,1.291,0.355,1.937,0.529c0.377,0.08,0.775,0.21,1.156,0.286
		c0.633,0.164,1.272,0.273,1.911,0.427c0.419,0.074,0.814,0.197,1.235,0.266c0.628,0.146,1.262,0.233,1.871,0.37
		c0.435,0.064,0.867,0.179,1.304,0.239c0.642,0.088,1.289,0.205,1.934,0.281c0.431,0.093,0.859,0.153,1.291,0.2
		c0.656,0.114,1.316,0.173,1.976,0.234c0.426,0.039,0.827,0.13,1.254,0.163c0.66,0.055,1.324,0.092,1.987,0.177
		c0.43,0.031,0.858,0.067,1.29,0.091c0.764,0.041,1.532,0.108,2.3,0.138c0.333,0.012,0.665,0.031,0.999,0.041
		c1.105,0.029,2.234,0.045,3.345,0.045c1.05,0,2.104-0.016,3.162-0.043c0.319-0.01,0.68-0.025,1.041-0.037
		c0.696-0.025,1.391-0.095,2.084-0.13c0.407-0.021,0.813-0.048,1.22-0.073c0.648-0.041,1.294-0.124,1.938-0.175
		c0.372-0.031,0.787-0.066,1.202-0.147c0.637-0.055,1.27-0.114,1.901-0.225c0.412-0.041,0.78-0.084,1.19-0.131
		c0.641-0.116,1.279-0.194,1.916-0.321c0.394-0.051,0.784-0.1,1.135-0.196c0.675-0.096,1.346-0.244,2.059-0.35
		c0.307-0.095,0.653-0.144,0.959-0.198c0.847-0.184,1.69-0.378,2.485-0.579c0.166-0.029,0.333-0.055,0.496-0.084
		c0.993-0.239,2.021-0.495,3.001-0.804c0.066-0.006,0.093-0.014,0.117-0.022c0.936-0.253,1.907-0.522,2.835-0.843
		c0.219-0.053,0.436-0.114,0.655-0.213c0.732-0.235,1.509-0.476,2.235-0.727c0.251-0.073,0.5-0.189,0.793-0.266
		c0.699-0.246,1.395-0.539,2.088-0.797c0.247-0.08,0.538-0.202,0.785-0.28c0.702-0.313,1.4-0.587,2.097-0.867
		c0.224-0.12,0.489-0.195,0.712-0.273c0.743-0.348,1.521-0.704,2.255-1.024c0.17-0.061,0.296-0.159,0.465-0.216
		c4.723-2.194,9.2-4.769,13.482-7.65c0.008-0.006,0.016-0.012,0.024-0.018c8.822-6.032,16.633-13.472,23.046-21.994L190.858,178.945
		z"/>
	<path style="fill:#1E5871;" d="M219.953,166.313l-0.006-0.002l-22.081-12.479L74.769,84.249L67.2,79.95l-14.54-8.214l-0.004-0.002
		c0.206-0.259,0.418-0.534,0.605-0.791c0.354-0.435,0.686-0.871,1.025-1.302c0.23-0.299,0.467-0.572,0.701-0.869
		c0.899-1.106,1.834-2.198,2.793-3.27c0.036-0.041,0.071-0.104,0.128-0.146c0.376-0.433,0.779-0.857,1.183-1.283
		c0.255-0.273,0.509-0.569,0.789-0.86c0.371-0.387,0.769-0.787,1.145-1.168c0.297-0.303,0.595-0.605,0.875-0.903
		c0.396-0.375,0.796-0.74,1.175-1.128c0.312-0.3,0.623-0.58,0.937-0.878c0.38-0.358,0.785-0.734,1.17-1.087
		c0.321-0.276,0.645-0.572,0.97-0.864c0.407-0.349,0.817-0.694,1.209-1.036c0.331-0.291,0.664-0.557,1.018-0.845
		c0.394-0.337,0.809-0.673,1.228-1.004c0.339-0.284,0.682-0.543,1.024-0.823c0.421-0.326,0.842-0.653,1.268-0.953
		c0.347-0.278,0.699-0.528,1.07-0.801c0.409-0.294,0.835-0.611,1.267-0.921c0.376-0.248,0.737-0.51,1.094-0.755
		c0.816-0.55,1.617-1.09,2.425-1.62c0.407-0.251,0.813-0.526,1.204-0.771c0.421-0.253,0.85-0.519,1.275-0.767
		c0.419-0.244,0.836-0.49,1.237-0.749c0.426-0.242,0.856-0.476,1.286-0.712c0.428-0.256,0.856-0.492,1.288-0.722
		c0.43-0.23,0.863-0.454,1.296-0.679c0.438-0.228,0.877-0.454,1.319-0.676c0.433-0.218,0.869-0.432,1.305-0.644
		c0.448-0.219,0.897-0.435,1.349-0.647c0.435-0.206,0.871-0.409,1.309-0.609c0.462-0.19,0.948-0.397,1.413-0.603
		c0.433-0.191,0.865-0.383,1.3-0.548c0.481-0.206,0.988-0.405,1.473-0.604c0.424-0.155,0.847-0.332,1.273-0.482
		c0.539-0.205,1.082-0.401,1.625-0.578c0.377-0.154,0.775-0.292,1.157-0.421c0.727-0.261,1.459-0.49,2.171-0.716
		c0.281-0.069,0.54-0.162,0.822-0.25c0.885-0.281,1.774-0.532,2.667-0.773c0.347-0.099,0.719-0.189,1.067-0.285
		c0.603-0.152,1.227-0.324,1.855-0.466c0.389-0.099,0.801-0.19,1.212-0.286c0.571-0.126,1.144-0.252,1.738-0.372
		c0.427-0.091,0.856-0.178,1.262-0.245c0.588-0.11,1.154-0.218,1.723-0.32c0.432-0.081,0.866-0.16,1.3-0.216
		c0.57-0.096,1.165-0.187,1.738-0.274c0.435-0.05,0.869-0.119,1.305-0.165c0.581-0.081,1.186-0.156,1.769-0.21
		c0.43-0.058,0.859-0.097,1.291-0.13c0.603-0.068,1.23-0.108,1.857-0.167c0.393-0.026,0.806-0.054,1.222-0.095
		c0.681-0.036,1.365-0.061,2.07-0.105c0.342-0.012,0.682-0.028,1.024-0.038c1.05-0.026,2.081-0.042,3.136-0.042
		c35.153,0,66,18.818,83.011,46.894h28.313c-19.092-42.449-61.758-72-111.325-72c-41.039,0-77.351,20.256-99.491,51.322
		c-4.594,6.453-8.559,13.393-11.843,20.678c-0.248,0.584-0.521,1.146-0.763,1.712L40.058,94.06l0.014,0.029l22.119,12.432
		l123.177,69.336l4.933,2.736l0.558,0.353l16.617,9.316l0.02,0.01c-6.416,8.524-14.239,15.952-23.065,21.984
		c-0.009,0.006-0.017,0.012-0.024,0.018c-4.282,2.88-8.758,5.456-13.482,7.65c-0.169,0.057-0.295,0.155-0.465,0.216
		c-0.733,0.32-1.512,0.677-2.255,1.024c-0.223,0.078-0.446,0.153-0.712,0.273c-0.696,0.28-1.395,0.556-2.097,0.867
		c-0.247,0.08-0.538,0.2-0.785,0.28c-0.693,0.258-1.389,0.551-2.088,0.797c-0.293,0.076-0.542,0.192-0.793,0.266
		c-0.727,0.251-1.503,0.491-2.235,0.727c-0.22,0.099-0.437,0.16-0.655,0.213c-0.928,0.32-1.899,0.59-2.835,0.843
		c-0.024,0.009-0.051,0.017-0.117,0.022c-0.979,0.309-2.008,0.564-3.001,0.804c-0.163,0.029-0.33,0.055-0.496,0.084
		c-0.795,0.201-1.639,0.396-2.485,0.579c-0.306,0.055-0.652,0.104-0.959,0.198c-0.713,0.105-1.384,0.254-2.059,0.35
		c-0.351,0.097-0.741,0.146-1.135,0.196c-0.637,0.127-1.275,0.205-1.916,0.321c-0.41,0.047-0.778,0.09-1.19,0.131
		c-0.632,0.11-1.265,0.17-1.901,0.225c-0.415,0.081-0.83,0.116-1.202,0.147c-0.645,0.049-1.29,0.134-1.938,0.175
		c-0.406,0.025-0.812,0.052-1.22,0.073c-0.693,0.035-1.388,0.104-2.084,0.13c-0.361,0.012-0.722,0.027-1.041,0.037
		c-1.058,0.027-2.111,0.043-3.162,0.043c-1.11,0-2.24-0.016-3.345-0.045c-0.334-0.01-0.666-0.029-0.999-0.041
		c-0.768-0.029-1.536-0.097-2.3-0.138c-0.432-0.023-0.86-0.06-1.29-0.091c-0.663-0.085-1.327-0.122-1.987-0.177
		c-0.427-0.033-0.828-0.124-1.254-0.163c-0.66-0.062-1.32-0.12-1.976-0.234c-0.432-0.047-0.86-0.107-1.291-0.2
		c-0.645-0.076-1.292-0.193-1.934-0.281c-0.437-0.061-0.869-0.175-1.304-0.239c-0.609-0.137-1.243-0.225-1.871-0.37
		c-0.421-0.068-0.815-0.191-1.235-0.266c-0.639-0.153-1.278-0.263-1.911-0.427c-0.381-0.076-0.779-0.206-1.156-0.286
		c-0.646-0.174-1.294-0.345-1.937-0.529c-0.38-0.087-0.779-0.229-1.18-0.321c-0.613-0.188-1.249-0.375-1.88-0.573
		c-0.374-0.101-0.765-0.248-1.138-0.392c-0.631-0.207-1.263-0.369-1.867-0.586c-0.386-0.146-0.745-0.303-1.128-0.41
		c-0.607-0.225-1.238-0.448-1.861-0.683c-0.354-0.153-0.704-0.317-1.056-0.435c-0.627-0.283-1.256-0.523-1.856-0.776
		c-0.338-0.116-0.691-0.283-1.027-0.444c-0.61-0.264-1.243-0.527-1.869-0.842c-0.326-0.124-0.647-0.295-0.972-0.462
		c-0.607-0.281-1.236-0.604-1.858-0.895c-0.295-0.172-0.606-0.307-0.92-0.478c-0.626-0.345-1.232-0.644-1.852-0.997
		c-0.297-0.127-0.569-0.305-0.866-0.478c-0.628-0.324-1.237-0.687-1.86-1.064c-0.27-0.135-0.557-0.315-0.846-0.495
		c-0.6-0.384-1.222-0.723-1.814-1.112c-0.282-0.182-0.537-0.368-0.816-0.551c-0.595-0.357-1.211-0.759-1.799-1.17
		c-0.27-0.183-0.514-0.372-0.761-0.515c-0.61-0.419-1.201-0.838-1.783-1.269c-0.263-0.187-0.498-0.38-0.737-0.568
		c-0.604-0.438-1.188-0.875-1.762-1.323c-0.227-0.187-0.448-0.336-0.694-0.521c-0.581-0.46-1.16-0.922-1.752-1.434
		c-0.218-0.146-0.411-0.338-0.627-0.528c-0.591-0.477-1.163-0.997-1.724-1.484c-0.211-0.191-0.417-0.388-0.626-0.539
		c-0.561-0.535-1.121-1.028-1.672-1.535c-0.202-0.19-0.397-0.388-0.597-0.58c-0.552-0.515-1.104-1.067-1.646-1.592
		c-0.174-0.195-0.364-0.396-0.557-0.593c-0.54-0.57-1.078-1.097-1.586-1.677c-0.191-0.161-0.375-0.365-0.544-0.566
		c-0.525-0.584-1.049-1.167-1.542-1.718c-0.185-0.205-0.362-0.413-0.524-0.618c-0.511-0.598-1.001-1.153-1.502-1.761
		c-0.157-0.209-0.332-0.421-0.488-0.632c-0.496-0.611-0.971-1.179-1.456-1.799c-0.153-0.212-0.299-0.431-0.472-0.643
		c-0.46-0.625-0.919-1.249-1.39-1.882c-0.147-0.217-0.287-0.437-0.453-0.654c-0.445-0.594-0.889-1.229-1.321-1.874
		c-0.145-0.226-0.305-0.456-0.449-0.683c-0.424-0.642-0.848-1.285-1.24-1.936c-0.162-0.232-0.297-0.47-0.437-0.706
		c-0.368-0.586-0.717-1.172-1.056-1.722H18.251c18.871,43.008,61.846,73.106,111.845,73.106c41.042,0,77.357-20.282,99.475-51.352
		c4.822-6.778,8.968-14.059,12.367-21.755c0.021-0.09,0.041-0.131,0.062-0.176L219.953,166.313z"/>
</g>
</svg>
