<?xml version="1.0" encoding="utf-8"?>
<!-- Generator: Adobe Illustrator 16.0.0, SVG Export Plug-In . SVG Version: 6.00 Build 0)  -->
<!DOCTYPE svg PUBLIC "-//W3C//DTD SVG 1.1//EN" "http://www.w3.org/Graphics/SVG/1.1/DTD/svg11.dtd">
<svg version="1.1" id="user" xmlns="http://www.w3.org/2000/svg" xmlns:xlink="http://www.w3.org/1999/xlink" x="0px" y="0px"
	 width="354.331px" height="354.331px" viewBox="0 0 354.331 354.331" style="enable-background:new 0 0 354.331 354.331;"
	 xml:space="preserve">
<path style="fill-rule:evenodd;clip-rule:evenodd;fill:#13536D;" d="M177.067,293.724c-29.605-0.001-59.21,0.012-88.815-0.008
	c-8.726-0.005-16.081-6.149-16.321-14.003c-0.153-5.009-0.079-10.119,0.729-15.048C78.34,230,97.254,205.31,129.271,190.837
	c10.932-4.941,22.555-7.339,34.545-7.447c11.061-0.099,22.169-0.39,33.177,0.444c19.55,1.479,36.879,8.973,51.911,21.577
	c17.408,14.598,28.017,33.26,32.257,55.479c1.038,5.437,1.261,11.08,1.356,16.637c0.161,9.414-6.683,16.158-16.096,16.187
	c-14.128,0.043-28.255,0.011-42.383,0.011C208.382,293.724,192.724,293.725,177.067,293.724z M177.122,283.288
	c29.413,0,58.826,0.004,88.238-0.006c5.026-0.001,6.921-1.856,6.803-6.84c-0.545-22.887-8.799-42.528-25.142-58.603
	c-13.728-13.503-30.197-21.711-49.415-23.378c-10.721-0.93-21.563-0.683-32.349-0.626c-45.04,0.237-81.987,36.616-83.084,81.663
	c-0.147,6.021,1.546,7.785,7.514,7.786C118.832,283.288,147.977,283.287,177.122,283.288z"/>
<path style="fill-rule:evenodd;clip-rule:evenodd;fill:#13536D;" d="M177.079,171.012c-31.439-0.089-56.905-25.743-56.741-57.159
	c0.165-31.527,25.605-56.684,57.229-56.588c31.267,0.095,56.587,25.687,56.471,57.075
	C233.92,145.661,208.351,171.101,177.079,171.012z M177.125,160.499c25.499,0.025,46.436-20.628,46.505-45.875
	c0.071-25.958-20.585-46.953-46.241-47c-25.66-0.047-46.612,20.766-46.643,46.333C130.715,139.673,151.443,160.474,177.125,160.499z
	"/>
</svg>
